HIERARCHY
ROOT hip
{
  OFFSET 0 0 0
  CHANNELS 6 Xposition Yposition Zposition Zrotation Yrotation Xrotation
  JOINT abdomen
  {
    OFFSET 0 20.6881 -0.73152
    CHANNELS 3 Zrotation Xrotation Yrotation
    JOINT chest
    {
      OFFSET 0 11.7043 -0.48768
      CHANNELS 3 Zrotation Xrotation Yrotation
      JOINT neck
      {
        OFFSET 0 22.1894 -2.19456
        CHANNELS 3 Zrotation Xrotation Yrotation
        JOINT head
        {
          OFFSET -0.24384 7.07133 1.2192
          CHANNELS 3 Zrotation Xrotation Yrotation
          JOINT leftEye
          {
            OFFSET 4.14528 8.04674 8.04672
            CHANNELS 3 Zrotation Xrotation Yrotation
            End Site
            {
              OFFSET 1 0 0
            }
          }
          JOINT rightEye
          {
            OFFSET -3.6576 8.04674 8.04672
            CHANNELS 3 Zrotation Xrotation Yrotation
            End Site
            {
              OFFSET 1 0 0
            }
          }
        }
      }
      JOINT rCollar
      {
        OFFSET -2.68224 19.2634 -4.8768
        CHANNELS 3 Zrotation Xrotation Yrotation
        JOINT rShldr
        {
          OFFSET -8.77824 -1.95073 1.46304
          CHANNELS 3 Zrotation Xrotation Yrotation
          JOINT rForeArm
          {
            OFFSET -28.1742 -1.7115 0.48768
            CHANNELS 3 Zrotation Xrotation Yrotation
            JOINT rHand
            {
              OFFSET -22.5879 0.773209 7.07136
              CHANNELS 3 Zrotation Xrotation Yrotation
              JOINT rThumb1
              {
                OFFSET -1.2192 -0.487915 3.41376
                CHANNELS 3 Zrotation Xrotation Yrotation
                JOINT rThumb2
                {
                  OFFSET -3.37035 -0.52449 3.41376
                  CHANNELS 3 Zrotation Xrotation Yrotation
                  End Site
                  {
                    OFFSET -1.78271 -1.18214 1.43049
                  }
                }
              }
              JOINT rIndex1
              {
                OFFSET -7.75947 0.938293 5.60832
                CHANNELS 3 Zrotation Xrotation Yrotation
                JOINT rIndex2
                {
                  OFFSET -2.54057 -0.884171 1.56538
                  CHANNELS 3 Zrotation Xrotation Yrotation
                  End Site
                  {
                    OFFSET -1.62519 -0.234802 1.16502
                  }
                }
              }
              JOINT rMid1
              {
                OFFSET -8.24714 1.18213 3.41376
                CHANNELS 3 Zrotation Xrotation Yrotation
                JOINT rMid2
                {
                  OFFSET -3.10165 -0.590103 1.0647
                  CHANNELS 3 Zrotation Xrotation Yrotation
                  End Site
                  {
                    OFFSET -2.48547 -0.328903 0.83742
                  }
                }
              }
              JOINT rRing1
              {
                OFFSET -8.82822 0.546677 1.51678
                CHANNELS 3 Zrotation Xrotation Yrotation
                JOINT rRing2
                {
                  OFFSET -2.60934 -0.819778 -0.0198488
                  CHANNELS 3 Zrotation Xrotation Yrotation
                  End Site
                  {
                    OFFSET -2.33842 -0.294052 0.168128
                  }
                }
              }
              JOINT rPinky1
              {
                OFFSET -8.27202 -0.0477905 -0.4584
                CHANNELS 3 Zrotation Xrotation Yrotation
                JOINT rPinky2
                {
                  OFFSET -1.82734 -0.647385 -0.700984
                  CHANNELS 3 Zrotation Xrotation Yrotation
                  End Site
                  {
                    OFFSET -1.69225 -0.51767 -0.607171
                  }
                }
              }
            }
          }
        }
      }
      JOINT lCollar
      {
        OFFSET 2.68224 19.2634 -4.8768
        CHANNELS 3 Zrotation Xrotation Yrotation
        JOINT lShldr
        {
          OFFSET 8.77824 -1.95073 1.46304
          CHANNELS 3 Zrotation Xrotation Yrotation
          JOINT lForeArm
          {
            OFFSET 28.1742 -1.7115 0.48768
            CHANNELS 3 Zrotation Xrotation Yrotation
            JOINT lHand
            {
              OFFSET 22.5879 0.773209 7.07136
              CHANNELS 3 Zrotation Xrotation Yrotation
              JOINT lThumb1
              {
                OFFSET 1.2192 -0.487915 3.41376
                CHANNELS 3 Zrotation Xrotation Yrotation
                JOINT lThumb2
                {
                  OFFSET 3.37035 -0.52449 3.41376
                  CHANNELS 3 Zrotation Xrotation Yrotation
                  End Site
                  {
                    OFFSET 1.78271 -1.18214 1.43049
                  }
                }
              }
              JOINT lIndex1
              {
                OFFSET 7.75947 0.938293 5.60832
                CHANNELS 3 Zrotation Xrotation Yrotation
                JOINT lIndex2
                {
                  OFFSET 2.54057 -0.884171 1.56538
                  CHANNELS 3 Zrotation Xrotation Yrotation
                  End Site
                  {
                    OFFSET 1.62519 -0.234802 1.16502
                  }
                }
              }
              JOINT lMid1
              {
                OFFSET 8.24714 1.18213 3.41376
                CHANNELS 3 Zrotation Xrotation Yrotation
                JOINT lMid2
                {
                  OFFSET 3.10165 -0.590103 1.0647
                  CHANNELS 3 Zrotation Xrotation Yrotation
                  End Site
                  {
                    OFFSET 2.48547 -0.328903 0.83742
                  }
                }
              }
              JOINT lRing1
              {
                OFFSET 8.82822 0.546677 1.51678
                CHANNELS 3 Zrotation Xrotation Yrotation
                JOINT lRing2
                {
                  OFFSET 2.60934 -0.819778 -0.0198488
                  CHANNELS 3 Zrotation Xrotation Yrotation
                  End Site
                  {
                    OFFSET 2.33842 -0.294052 0.168128
                  }
                }
              }
              JOINT lPinky1
              {
                OFFSET 8.27202 -0.0477905 -0.4584
                CHANNELS 3 Zrotation Xrotation Yrotation
                JOINT lPinky2
                {
                  OFFSET 1.82734 -0.647385 -0.700984
                  CHANNELS 3 Zrotation Xrotation Yrotation
                  End Site
                  {
                    OFFSET 1.69225 -0.51767 -0.607171
                  }
                }
              }
            }
          }
        }
      }
    }
  }
  JOINT rButtock
  {
    OFFSET -8.77824 4.35084 1.2192
    CHANNELS 3 Zrotation Xrotation Yrotation
    JOINT rThigh
    {
      OFFSET 0 -1.70687 -2.19456
      CHANNELS 3 Zrotation Xrotation Yrotation
      JOINT rShin
      {
        OFFSET 0 -36.8199 0.73152
        CHANNELS 3 Zrotation Xrotation Yrotation
        JOINT rFoot
        {
          OFFSET 0.73152 -45.1104 -5.12064
          CHANNELS 3 Zrotation Xrotation Yrotation
          End Site
          {
            OFFSET -1.1221 -3.69964 12.103
          }
        }
      }
    }
  }
  JOINT lButtock
  {
    OFFSET 8.77824 4.35084 1.2192
    CHANNELS 3 Zrotation Xrotation Yrotation
    JOINT lThigh
    {
      OFFSET 0 -1.70687 -2.19456
      CHANNELS 3 Zrotation Xrotation Yrotation
      JOINT lShin
      {
        OFFSET 0 -36.8199 0.73152
        CHANNELS 3 Zrotation Xrotation Yrotation
        JOINT lFoot
        {
          OFFSET -0.73152 -45.1104 -5.12064
          CHANNELS 3 Zrotation Xrotation Yrotation
          End Site
          {
            OFFSET 1.1221 -3.69964 12.103
          }
        }
      }
    }
  }
}
MOTION
Frames:	6
Frame Time:	0.00833333
128.278 85.3326 7.53274 0.0 0.0 0.0 1.16875 -0.00493882 0.0322837 0.322754 -0.00472404 0.0559151 -1.79824e-15 -7.95139e-16 -1.2424e-17 -5.29264e-15 3.18055e-15 -6.52262e-17 -0.0 0.0 0.0 -0.0 0.0 0.0 -6.47381e-16 3.10601e-18 1.98785e-16 -1.63342e-14 1.2424e-17 3.97569e-16 -3.03594e-13 9.6013e-14 3.18055e-14 -3.46979e-12 -7.11401e-14 -8.26944e-14 -8.1859e-12 5.22694e-14 -9.54166e-14 -1.41451e-11 9.22361e-14 -1.75726e-13 -8.17999e-12 5.48646e-14 -1.17681e-13 7.73091 5.47488 0.417314 -8.1863e-12 5.25785e-14 -9.85972e-14 2.90554 0.965183 0.102902 -8.17695e-12 5.27773e-14 -1.00187e-13 10.2786 0.731801 0.0259123 -8.19152e-12 5.40694e-14 -9.54166e-14 2.22167 -0.733487 -0.20892 -9.42962e-16 5.43552e-18 -2.48481e-16 -1.86657e-14 -1.86361e-16 -7.95139e-16 -3.03445e-13 -8.90555e-14 -2.54444e-14 -3.46172e-12 9.7976e-14 -2.22639e-14 -8.16569e-12 2.27144e-14 -1.11319e-13 -1.40911e-11 3.81667e-14 -1.90038e-13 -8.17045e-12 2.50469e-14 -1.01778e-13 -7.73091 5.47488 -0.417314 -8.16558e-12 2.25621e-14 -1.11319e-13 -2.90554 0.965183 -0.102902 -8.17687e-12 2.33572e-14 -1.08139e-13 -10.2786 0.731801 -0.0259123 -8.1613e-12 2.50469e-14 -1.145e-13 -2.22167 -0.733487 0.20892 -2.03217e-16 0.0 -3.88251e-19 1.35582 -5.84652 -0.122717 0.00113211 5.03401 0.0414052 -0.480823 0.811087 0.0710843 2.03217e-16 0.0 3.88251e-19 0.426388 -1.91991 0.00997281 0.00898982 -2.0786 0.0740863 0.459322 3.99698 -0.132493
123.469 83.9953 2.28479 138.674 -84.8398 -134.483 0.371186 -0.400979 -0.196248 -0.343378 -2.10053 -0.0666311 -3.03624 2.64482 -0.549304 6.20927 -4.55075 0.0402298 -0.0 0.0 0.0 -0.0 0.0 0.0 -1.39008e-14 4.87621e-13 5.05375e-14 25.3921 0.477153 -1.54931 -3.99783 -1.77445 6.28906 0.0110227 2.3292 0.326372 -2.44107e-11 -2.50137e-10 -9.62535e-11 -4.30416e-11 -4.32636e-10 -1.65673e-10 -2.44053e-11 -2.50135e-10 -9.62714e-11 7.73091 5.47488 0.417314 -2.44114e-11 -2.50138e-10 -9.62564e-11 2.90554 0.965183 0.102902 -2.44021e-11 -2.50137e-10 -9.62563e-11 10.2786 0.731801 0.0259123 -2.44158e-11 -2.50136e-10 -9.62506e-11 2.22167 -0.733487 -0.20892 -1.40976e-14 4.87619e-13 5.01741e-14 -24.4846 1.97603 2.95748 4.87885 -2.36594 -7.45153 -0.0630977 5.57891 -0.770718 -1.15745e-10 1.02094e-10 1.74087e-10 -1.97e-10 1.76461e-10 3.02398e-10 -1.1575e-10 1.02096e-10 1.74095e-10 -7.73091 5.47488 -0.417314 -1.15745e-10 1.02094e-10 1.74089e-10 -2.90554 0.965183 -0.102902 -1.15755e-10 1.02094e-10 1.74091e-10 -10.2786 0.731801 -0.0259123 -1.15739e-10 1.02097e-10 1.74084e-10 -2.22167 -0.733487 0.20892 -2.03217e-16 0.0 -3.88251e-19 1.87042 -13.3911 -1.27722 -0.0173197 11.6584 0.113441 -0.724779 -2.32198 -2.47169 2.03217e-16 0.0 3.88251e-19 -2.26148 -2.52576 2.10687 -0.00995089 4.17482 -0.0591445 0.663142 -4.6649 1.60524
122.768 83.9745 2.07949 147.182 -84.6421 -142.878 -0.49688 -0.79303 -0.436825 -1.0847 -4.31545 -0.198026 -6.19138 5.4454 -1.14286 12.808 -9.38532 0.0727575 -0.0 0.0 0.0 -0.0 0.0 0.0 -2.74129e-14 1.03386e-12 1.14317e-13 52.2885 0.985019 -3.18704 -7.80692 -3.5815 12.9625 -0.00626709 4.79022 0.673046 -7.91e-11 -5.86684e-10 -2.25655e-10 -1.38659e-10 -1.01505e-09 -3.8824e-10 -7.90951e-11 -5.86682e-10 -2.25668e-10 7.73091 5.47488 0.417314 -7.9101e-11 -5.86686e-10 -2.25657e-10 2.90554 0.965183 0.102902 -7.90919e-11 -5.86685e-10 -2.25655e-10 10.2786 0.731801 0.0259123 -7.91045e-11 -5.86684e-10 -2.25648e-10 2.22167 -0.733487 -0.20892 -2.75031e-14 1.03386e-12 1.14043e-13 -50.5755 4.03474 6.10109 9.36894 -4.73021 -15.3627 0.0365565 11.4909 -1.61263 -2.82089e-10 2.35833e-10 3.78855e-10 -4.80915e-10 4.07812e-10 6.58833e-10 -2.82095e-10 2.35835e-10 3.78863e-10 -7.73091 5.47488 -0.417314 -2.8209e-10 2.35833e-10 3.78859e-10 -2.90554 0.965183 -0.102902 -2.82099e-10 2.35834e-10 3.78861e-10 -10.2786 0.731801 -0.0259123 -2.82081e-10 2.35836e-10 3.78853e-10 -2.22167 -0.733487 0.20892 -2.03217e-16 0.0 -3.88251e-19 2.02524 -21.3729 -2.59706 -0.0559073 18.6628 0.195637 -1.29064 -5.59478 -5.21883 2.03217e-16 0.0 3.88251e-19 -5.06826 -3.17786 4.37275 0.00240331 10.7734 -0.201857 1.44088 -13.78 3.46525
122.045 83.9586 1.85898 155.683 -84.3293 -151.298 -1.23342 -1.19299 -0.653439 -1.70266 -6.29205 -0.313478 -8.95536 7.93151 -1.66206 18.6474 -13.6522 0.123807 -0.0 0.0 0.0 -0.0 0.0 0.0 -4.04078e-14 1.46286e-12 1.51215e-13 76.2536 1.42727 -4.64923 -10.8445 -5.06731 18.9349 -0.0470414 6.9867 0.985626 -5.68604e-11 -7.50517e-10 -2.8857e-10 -1.00835e-10 -1.29809e-09 -4.96667e-10 -5.68559e-11 -7.50516e-10 -2.88579e-10 7.73091 5.47488 0.417314 -5.68616e-11 -7.50519e-10 -2.88572e-10 2.90554 0.965183 0.102902 -5.68525e-11 -7.50518e-10 -2.88569e-10 10.2786 0.731801 0.0259123 -5.68643e-11 -7.50517e-10 -2.88561e-10 2.22167 -0.733487 -0.20892 -4.0407e-14 1.46285e-12 1.51019e-13 -74.0658 5.86479 8.9142 12.8321 -6.61865 -22.4934 0.277762 16.7243 -2.4029 -3.30902e-10 3.06236e-10 5.22483e-10 -5.62819e-10 5.29307e-10 9.07575e-10 -3.30909e-10 3.06237e-10 5.2249e-10 -7.73091 5.47488 -0.417314 -3.30905e-10 3.06236e-10 5.22488e-10 -2.90554 0.965183 -0.102902 -3.30912e-10 3.06236e-10 5.22489e-10 -10.2786 0.731801 -0.0259123 -3.30893e-10 3.06239e-10 5.22481e-10 -2.22167 -0.733487 0.20892 -2.03217e-16 0.0 -3.88251e-19 1.87351 -28.4325 -3.96181 -0.109179 24.9069 0.276532 -2.05192 -8.5195 -7.63588 2.03217e-16 0.0 3.88251e-19 -7.5043 -3.71997 6.30787 0.0420268 16.6814 -0.339318 2.7394 -21.9039 5.45928
121.353 83.9421 1.61782 163.248 -83.9314 -158.756 -1.63556 -1.61277 -0.810068 -1.99262 -7.67292 -0.387298 -10.8547 9.63444 -1.98126 22.583 -16.5 0.220005 -0.0 0.0 0.0 -0.0 0.0 0.0 -5.21096e-14 1.59873e-12 1.20911e-13 92.8345 1.70956 -5.67129 -12.7596 -5.99573 23.0899 -0.0899236 8.52271 1.20679 1.57701e-10 -4.82564e-10 -1.8527e-10 2.70597e-10 -8.32726e-10 -3.19744e-10 1.57706e-10 -4.82564e-10 -1.85277e-10 7.73091 5.47488 0.417314 1.577e-10 -4.82565e-10 -1.85274e-10 2.90554 0.965183 0.102902 1.57709e-10 -4.82566e-10 -1.85269e-10 10.2786 0.731801 0.0259123 1.57698e-10 -4.82565e-10 -1.85261e-10 2.22167 -0.733487 -0.20892 -5.20569e-14 1.59872e-12 1.20762e-13 -90.6271 7.18306 10.8623 14.9771 -7.77049 -27.5415 0.532161 20.2737 -2.9758 -8.58893e-11 2.18297e-10 5.13259e-10 -1.39698e-10 3.76164e-10 8.87083e-10 -8.5896e-11 2.18298e-10 5.13265e-10 -7.73091 5.47488 -0.417314 -8.58921e-11 2.18297e-10 5.13265e-10 -2.90554 0.965183 -0.102902 -8.58977e-11 2.18297e-10 5.13264e-10 -10.2786 0.731801 -0.0259123 -8.58794e-11 2.18301e-10 5.13256e-10 -2.22167 -0.733487 0.20892 -2.03217e-16 0.0 -3.88251e-19 1.70752 -33.2288 -5.10793 -0.158223 29.25 0.337316 -2.69629 -10.6444 -9.1496 2.03217e-16 0.0 3.88251e-19 -9.11727 -4.0039 7.40949 0.0873513 20.8631 -0.449838 4.25091 -27.6152 7.44852
120.693 83.9259 1.36569 169.299 -83.4875 -164.672 -1.54386 -2.06036 -0.892541 -1.82913 -8.23217 -0.405069 -11.5932 10.2491 -2.00687 23.8476 -17.364 0.383695 -0.0 0.0 0.0 -0.0 0.0 0.0 -6.64792e-14 1.27197e-12 -3.82528e-14 99.0556 1.80186 -6.09455 -13.4446 -6.31499 24.6696 -0.110115 9.1292 1.29483 7.88577e-10 6.23653e-10 2.55969e-10 1.36395e-09 1.086e-09 4.37196e-10 7.88582e-10 6.23653e-10 2.55963e-10 7.73091 5.47488 0.417314 7.88576e-10 6.23658e-10 2.55963e-10 2.90554 0.965183 0.102902 7.88586e-10 6.23651e-10 2.55969e-10 10.2786 0.731801 0.0259123 7.88575e-10 6.23652e-10 2.55976e-10 2.22167 -0.733487 -0.20892 -6.64294e-14 1.27197e-12 -3.84012e-14 -97.3065 7.81707 11.5923 15.7873 -8.19984 -29.5953 0.641325 21.4856 -3.18109 7.62661e-10 -1.74941e-10 2.31886e-10 1.32148e-09 -3.06728e-10 3.85803e-10 7.62655e-10 -1.7494e-10 2.31892e-10 -7.73091 5.47488 -0.417314 7.62658e-10 -1.74942e-10 2.31893e-10 -2.90554 0.965183 -0.102902 7.62654e-10 -1.74942e-10 2.3189e-10 -10.2786 0.731801 -0.0259123 7.62671e-10 -1.74939e-10 2.3188e-10 -2.22167 -0.733487 0.20892 -2.03217e-16 0.0 -3.88251e-19 1.96318 -34.8938 -5.6844 -0.179852 30.9301 0.358321 -2.9029 -11.6879 -9.3493 2.03217e-16 0.0 3.88251e-19 -9.62687 -3.91565 7.28396 0.109489 22.5885 -0.51209 5.52368 -30.0289 9.22345
